<?xml version="1.0" encoding="UTF-8" standalone="no"?><svg xmlns="http://www.w3.org/2000/svg" version="1.1" xmlns:xlink="http://www.w3.org/1999/xlink" xmlns:svgjs="http://svgjs.dev/svgjs" width="1000" height="1000" viewBox="0 0 1000 1000"><rect width="1000" height="1000" fill="#ffffff"></rect><g transform="matrix(0.7,0,0,0.7,150,106.25)"><svg viewBox="0 0 320 360" data-background-color="#282634" preserveAspectRatio="xMidYMid meet" height="1125" width="1000" xmlns="http://www.w3.org/2000/svg" xmlns:xlink="http://www.w3.org/1999/xlink"><g id="tight-bounds" transform="matrix(1,0,0,1,0,0)"><svg viewBox="0 0 320 360" height="360" width="320"><g><svg></svg></g><g><svg viewBox="0 0 320 360" height="360" width="320"><g><path xmlns="http://www.w3.org/2000/svg" d="M165.217 303.356c-1.404-1.755-2.809-0.702-2.808-1.755-8.426 2.106-24.223-3.511-30.894-2.809 1.404-2.106-2.106-1.755-2.106-3.159-1.404 2.106-2.809 0-4.915 0.702-2.106-5.266-10.532-1.404-11.585-8.075-4.915 0-6.67-2.809-11.586-5.617 0.351-0.351 0.702-0.351 1.054-0.702-2.457-0.351-2.457-1.755-4.564-1.755l0.702-1.405c-3.862-0.702-5.266-6.67-10.883-8.776-1.755-0.351-5.617-6.319-7.723-7.724-1.053-0.702-2.809-0.702-0.352-1.053-0.351-0.351-0.351-1.053 0-1.404-2.457-0.702-2.809-2.809-5.968-3.862-0.351-1.053 0.702-1.755 0-2.457-0.702-0.351-1.755 0.351-2.457 0-0.351 6.319 6.67 7.021 8.777 12.287-0.702-0.702-1.755-2.809-2.458-1.404-0.351 1.053 2.809 4.915 2.809 2.808-1.053 0.702-1.404-1.053-0.703-1.404 1.053 1.755 3.16 1.404 3.16 2.809-1.053 1.053-2.457-1.053-2.106 0.702 3.16 1.755 2.809 3.511 4.563 5.968-1.404-1.755-1.755 1.404-3.159 0-0.351-5.266-6.319-4.213-6.319-9.479-0.702-1.755-1.404-0.351-2.458-1.053 1.404-1.404-4.213-6.319-4.213-4.564-1.755-2.106-0.702-2.809-1.053-4.213-1.404-0.351-0.351 1.404-1.404 0.351 1.404-2.457-1.755-5.617-3.862-8.074l1.405-0.702c-2.457-1.404-2.809-4.213-4.564-7.373-2.106 3.16 4.213 10.181 3.159 11.585 0 0.351 2.457 3.16 3.16 4.564 2.809 4.915 4.915 10.883 8.777 13.692-0.702-0.351-0.351-2.457 0.702-1.404 0 1.053-0.702 2.106-0.702 3.159 2.106 2.106 3.862 3.862 5.968 5.968-4.564-2.809-9.128-5.617-12.288-9.83 1.755-0.351 3.511 2.809 4.915 2.458-3.511-2.809-2.457-3.862-3.861-7.372-1.404-1.053 0.351 1.404-1.054 1.755-4.564-4.213-8.075-6.67-10.181-10.532 0.351-0.351 0.702-0.702 0.703-1.404-0.351-0.351-0.351-0.351-0.703-0.702 2.106 2.106 2.809 3.862 5.266 4.212-1.053-1.053 0-1.404-1.404-2.457-0.702-1.404-1.755 0.702-2.457-0.351 0.702-1.053 0-2.457 0-3.511-0.702 0-1.404 0-1.756-1.053-0.702-0.351-1.053 0-1.404 0.702-0.351-0.351-0.351-1.053-0.702-1.404v-0.351c-0.351-0.351-0.702-1.053-1.053-1.405-2.809-7.372-4.564-17.202-8.426-23.521 1.053-4.213-0.702-12.638-1.755-14.745 1.053-1.755 0.351-9.83-0.351-11.234-1.755 0.702 0.351 4.564-1.404 5.617-1.755-7.723 1.053-16.5 0.351-23.521 0.702 0 1.404 0 1.404-0.351-1.053-1.053 0.702-3.16 0.351-5.617 1.404-3.16-3.16 4.564-3.16 7.723-0.351 0.702-1.755 0-1.404 1.756 0 2.457 0.702 7.372-0.702 10.883-0.702 0-0.702-0.702-1.404-0.351-0.351 1.755-0.702 3.862-1.053 5.617-0.351-0.702-0.702-1.755-0.703-2.107-1.755-8.777 0-18.958-0.702-26.33 1.404 0 1.404-2.106 2.458-2.808-0.351 2.809-1.053 6.319 0.702 7.021 1.404-13.692 4.213-28.787 10.532-43.532 4.564-10.883 11.234-21.766 19.308-30.543 0.702 1.053-0.351 3.511 0 4.564 7.021-7.372 11.585-16.149 19.309-21.064 0.351 1.755-3.16 3.16-3.16 4.564 3.16-3.16 4.213-2.106 7.724-3.159 1.053-1.404-1.404 0-1.756-1.405 2.106-1.404 3.511-3.16 4.915-4.212 0 0.351-0.351 0.351-0.351 0.702 3.862-1.053 4.213-3.16 7.022-3.862-0.351-0.351-1.053-0.702-2.107-0.351 0.702-0.351 1.755-1.053 2.809-1.404-0.351 0-0.351 0.351-0.702 0.351 2.106-1.053 0.351 0.351 0.351 1.053 0.351 0 0.702-0.351 0.702-0.351-2.106 1.404-3.511 2.106-4.213 4.564 1.053-0.702 1.404 0 2.809-1.054 1.404-0.702-0.351-1.755 0.702-2.457 1.053 0.702 2.457 0.351 3.51 0.351 0-0.702 0.351-1.404 1.054-1.755 0.351-0.702 0-1.053-0.352-1.053 0.351-0.351 0.702-0.351 1.405-0.703 0 0 0.351 0 0.351 0.351 5.968-2.809 12.638-5.266 18.957-7.372 3.862-0.351 8.777-0.351 10.883-2.808-0.702 0-1.404 0.351-1.755 0 0.351 0 1.053-0.351 1.404-0.351 0.702 0.702 1.755 0 0.702 1.404 0.351 0 0.351 0 0.703-0.351 0 0.351 0 0.351 0.351 0.702 0.351 0 0.702-0.351 1.053-1.053 0.351 0 0.702 0 1.053-0.351l-0.351 0.351c2.809-0.702 5.266-0.351 9.128-1.054 0-0.351 0-0.702 0-1.053 0.702 0 1.053-0.351 1.755-0.351v0.351c1.404-0.702 2.809 0.702 2.808 0 0.351 0 0.351 0 0.703 0 0 0.702-0.351 1.053-0.351 1.405 1.755 0 2.809 0 3.51-1.054-0.351-0.351-0.702-0.351-1.053-0.351 0.702 0 1.404-0.351 2.106-0.702 1.053 0.351 1.404 0.702 1.405 2.107 1.755-3.16 7.372 0.702 9.829 0 1.053 0 0.702-1.404 1.405-2.107 0.351 0 0.702 0 1.053 0 1.755 1.404 4.213 2.809 7.372 3.16-2.809-0.702 0.351-1.053 0.702-1.405-0.702 0-0.702-0.351-0.702-0.702 1.053 0 2.106 0.351 3.16 0.351 0 0.702 0.351 1.053 1.053 1.054 0.702 0 0.702-0.351 0.702-1.054 1.053 0 1.755 0 2.809 0.351-0.351 1.404 1.755 1.755 2.457 2.809-2.809-0.702-5.968-1.755-7.021 0 11.234 2.457 23.521 5.968 35.457 11.936 0 0 0 0 0 0.351h0.352c2.106 1.053 4.213 2.106 6.319 3.16 1.404 0.702 2.457 1.404 3.861 2.457 0 0.351 0 0.702 0.703 0.702h0.351c1.404 1.053 2.809 1.755 4.212 2.809 1.404 2.106 2.809 4.915 5.266 4.213 5.266 8.075 10.883 11.234 15.447 19.659 0.351-1.404 1.404 3.16 3.16 3.511-2.809-0.351 1.755 1.755-1.053 1.404 2.457 2.457 3.16 3.511 3.51 6.319-0.702-1.404-1.053-1.755-1.404-0.351-0.351 2.106 2.457-0.351 3.511 1.756-2.106 0-1.404 1.404-1.054 3.159 1.053-1.053 0.702-2.106 1.756-1.755 1.404 1.404-0.702 1.755-0.351 2.809 1.053-1.404 1.404-0.702 2.808 0-1.755 0.351 1.053 2.809-1.053 1.755 1.404 1.755 1.755 2.809 1.053 4.564-1.404-2.106-0.351-3.511-2.457-3.16 4.213 3.511 2.106 11.585 7.021 12.287-3.16 0.702 0 2.106-1.755 2.458 2.106 0.702 1.053 3.511 3.51 4.213-0.351 1.755-1.053 2.809-1.404 4.563 1.053 1.404 1.404 4.213 3.16 4.564-1.053 1.053-0.351 3.862-1.404 4.915 1.404-0.702 2.106-0.702 3.159 0.702-1.755 1.404-0.351 2.809-1.404 3.16 3.16 8.075-0.702 24.575 1.053 30.894-2.106-1.053-1.404 2.457-2.808 2.457 2.457 1.053 0.351 2.809 1.404 4.564-4.915 2.809 0 10.532-6.67 12.287 0.702 4.915-2.106 7.021-4.213 12.288-0.351-0.351-0.351-0.702-0.702-1.054-0.351 2.457-1.755 2.809-1.054 4.915l-1.404-0.702c0 3.862-5.968 5.968-7.372 11.936-0.351 1.755-5.617 6.319-7.022 8.777-0.702 1.053-0.351 2.809-1.053 0.351-0.351 0.351-1.053 0.351-1.404 0.351-0.351 2.457-2.457 3.16-3.16 6.319-0.702 0.351-1.755-0.702-2.457 0.351 0 0.702 0.702 1.755 0.351 2.458 6.319-0.351 6.319-7.723 11.234-10.181-0.351 1.053-2.457 2.106-1.053 2.808 1.053 0 4.213-3.511 2.457-3.159 1.053 0.702-1.053 1.404-1.404 1.053 1.755-1.404 1.053-3.16 2.458-3.511 1.053 0.702-1.053 2.457 1.053 2.107 1.404-3.16 3.16-3.511 5.266-5.266-1.404 1.404 1.755 1.755 0.351 3.159-5.266 1.053-3.511 7.021-8.777 7.724-1.404 1.053-0.351 1.404-0.702 2.457-1.755-1.053-5.617 4.915-4.213 4.564-1.755 1.755-2.809 1.053-4.212 1.404-0.351 1.404 1.404 0.351 0.702 1.405-2.457-1.053-5.617 2.457-7.724 4.915l-1.053-1.054c-1.053 2.809-3.862 3.16-7.021 5.266 3.511 1.755 9.479-5.617 11.234-4.564 0.351 0 3.16-2.809 4.213-3.861 4.564-3.511 10.181-6.319 12.287-10.181-0.351 0.702-2.457 0.702-1.404-0.351 1.053-0.351 2.106 0.351 3.159 0.351 5.617-7.723 12.638-14.043 17.905-23.17 0.351-0.351 0.702-1.053 1.053-1.756-0.702 2.106-1.755 3.862-2.458 5.968-5.617 3.862-7.723 15.096-14.393 16.851 0.351 3.862-3.16 4.915-4.915 9.479-1.053 1.404-1.755-1.053-2.809 0.702 1.053 4.915-8.777 4.564-8.425 9.128-0.702 0.351-1.755 0.702-2.458 1.404h-0.351c-0.351 0.351-0.351 0.351-0.702 0.702-1.755 1.053-3.16 2.106-4.564 3.16-4.915 2.809-11.585 4.915-16.851 7.723v-0.351c-1.404 0.702-3.16 0.351-2.809 1.756-1.053 0.702-2.106 1.404-3.159 2.106-0.351 0-0.351 0-0.702 0 0 0-0.351-0.351-0.702-0.351-0.702 0-0.702 0-1.054 0.351-4.564 0.351-10.532 2.457-12.287 3.862-1.755-1.053-9.83 0.702-11.234 1.404 0.702 1.053 2.809 0 4.564 0-1.053 0.351-2.106 0.702-2.458 1.404-0.351 0-0.351 0-0.702 0-0.351-1.053-1.404 0-1.755-0.351h0.351c-0.351-1.404-1.404-2.106-3.16-1.755 0 0.702 0 1.053-0.351 1.755 0.702 0 2.809-1.053 2.809 0-0.351 0-0.351 0.351 0 0.351-0.702 0.702-1.755 0.702-2.458 1.054-1.404 0-3.16 0-4.563 0-0.351-0.351-0.702-0.351-1.405-0.703-0.351 0.351-1.053 0.351-1.404 0.703-2.106 0-4.564 0.351-6.319 0.702 0-0.702 0-1.404-0.702-1.405-1.053 1.404-3.16-0.351-5.617 0.352-2.457-0.702 1.404 1.053 4.915 1.755-0.351 0.351-0.702 0.702-1.756 1.053M116.068 308.271c-4.915-4.564-15.096-6.67-16.851-10.181-2.809-0.351-7.021-5.617-10.532-6.319 1.755 0 0.351-1.053 0-1.755-0.702 0.702-1.404 1.053-2.106 1.053 0-2.809-2.809-4.564-5.266-6.319 1.755 1.053 3.16 1.755 5.266 2.106 0-0.702 0-1.404 0.702-1.404 2.457 2.457 5.266 4.915 8.425 7.372 4.213 3.862 25.979 13.692 29.841 15.447 0 0-0.702 1.404-0.351 1.404 1.755 1.053 3.16-1.053 3.511 1.404-5.617 0.702-7.723-3.16-12.639-2.808M277.909 226.824v0.351 0c-0.351 0 0-0.351 0-0.351M136.079 64.281c-0.351 0.351-0.702 0.351-0.702 0.351 0-0.351 0.351-0.351 0.702-0.351M129.409 66.036c0 0.351 0 0.351 0 0 0 0.351 0 0.351 0 0 0 0.351 0 0 0 0M106.238 73.408v0c0.351-0.351 0.351-0.351 0.703-0.351-0.351 0-0.702 0.351-0.703 0.351M162.409 61.823c-0.702 0-1.053 0-1.404-0.351 0.351 0 0.702 0 1.053 0h0.351c0 0 0 0 0 0.351M168.728 62.525c-0.351-0.351-1.404-0.702-2.457-0.702 0-0.351 0.351-0.702 0.351-0.702 0.351 0 0.702 0 1.053 0 0 0 0.351 0 0.351 0.351 0 0 0 0 0-0.351 0.351 0 0.351 0 0.702 0 0.351 0.702 0.702 1.053 0 1.404M180.313 63.579c-1.755 0.351-2.809-0.351-4.564-1.405 1.053 0 2.457 0.351 3.511 0.702 0.351 0 0.702 0.351 1.053 0.703M305.292 113.43c-0.702 0.351-1.053 0.351-1.755-1.053-5.617-11.936-15.798-29.138-30.543-43.532-14.394-14.745-33.702-26.681-51.255-33.001 1.053 0.351 2.457 1.053 1.755 1.756-15.447-5.968-30.192-9.479-44.234-10.883-37.915-5.968-77.585 2.106-108.128 21.766 0.351 0.702 0.351 1.053-0.702 1.755-11.234 7.021-27.032 19.309-39.671 35.458-12.638 16.149-22.468 36.511-26.681 54.766 0.351-1.053 0.702-2.809 1.405-2.107-9.128 36.16-6.67 67.053 5.968 93.735 0.702-0.702-1.755-4.213 0.351-3.862 1.404 3.862 3.16 8.075 5.266 11.936 2.457 5.617 5.266 12.989 9.128 14.745-9.83-19.309-16.5-41.426-17.203-61.085 1.404 2.809 1.053 8.777 3.16 11.234 0.702-13.34-2.457-31.245 2.106-43.883-1.053 6.67-1.755 15.798-1.053 24.925 0 6.67 3.16 25.277 5.266 27.032-0.351-0.351-0.351-2.106 0-2.106 1.053 2.106-1.404 3.16 0.351 3.511 0-0.702 0.351-0.702 0.702-0.703 3.511 7.723 8.075 19.66 11.585 25.628 4.213 7.723 9.83 14.745 16.149 21.064 0 0.351 0.351 0.351 0.352 0.702 0.702 1.755 3.16 3.862 3.861 5.266 0.351 0.702-0.351 1.755 0 2.458 5.266 9.83 12.989 19.66 22.468 27.383 5.968 7.021 15.447 14.394 27.032 20.713 11.234 5.968 24.223 10.883 36.16 13.691 8.426 2.106 18.606 2.457 24.926 3.862 8.426 1.755 23.17-0.702 30.542-2.107 44.234-6.67 88.117-36.862 110.235-80.393 22.819-43.883 22.117-97.596 2.457-138.671" fill="#000000" fill-rule="nonzero" stroke="none" stroke-width="1" stroke-linecap="butt" stroke-linejoin="miter" stroke-miterlimit="10" stroke-dasharray="" stroke-dashoffset="0" font-family="none" font-weight="none" font-size="none" text-anchor="none" style="mix-blend-mode: normal" data-fill-palette-color="tertiary"></path></g><g transform="matrix(1,0,0,1,80,153.156326524962)"><svg viewBox="0 0 160 53.68734695007599" height="53.68734695007599" width="160"><g><svg viewBox="0 0 160 53.68734695007599" height="53.68734695007599" width="160"><g><svg viewBox="0 0 160 53.68734695007599" height="53.68734695007599" width="160"><g><svg viewBox="0 0 160 53.68734695007599" height="53.68734695007599" width="160"><g id="textblocktransform"><svg viewBox="0 0 160 53.68734695007599" height="53.68734695007599" width="160" id="textblock"><g><svg viewBox="0 0 160 28.95638957091079" height="28.95638957091079" width="160"><g transform="matrix(1,0,0,1,0,0)"><svg width="160" viewBox="2.615217447280884 -31 185.92477416992188 33.650001525878906" height="28.95638957091079" data-palette-color="#ff4057"><path d="M3.4 0.05Q2.45 0.05 2.65-1.65L2.65-1.65Q2.65-2.25 2.9-3L2.9-3Q2.9-3.35 2.95-3.58 3-3.8 3-3.95L3-3.95Q4.15-9.4 5.55-14.7L5.55-14.7 8.95-28Q8.95-28.1 9.1-28.25 9.25-28.4 9.4-28.5L9.4-28.5 9.75-28.5Q10.35-28.5 10.7-28.65L10.7-28.65Q11-28.7 11.75-28.7L11.75-28.7Q12.95-28.7 13.55-28.65L13.55-28.65Q14.45-28.5 15.4-28.5L15.4-28.5 18-28.55Q18.4-28.65 18.95-28.65L18.95-28.65 21.15-28.75 22.8-28.75Q23.75-28.75 24.65-28.7L24.65-28.7 26.05-28.7Q26.55-28.65 27.5-28.65L27.5-28.65 29.4-28.65Q29.55-28.65 29.7-28.6 29.85-28.55 29.95-28.5L29.95-28.5Q30.15-28.4 30.45-28.4L30.45-28.4 30.9-28.4Q31.25-28.15 31.25-27.9L31.25-27.9 34.8-14.7Q36.45-8.35 37.4-3.95L37.4-3.95Q37.4-3.7 37.55-3L37.55-3Q37.75-2 37.75-1.4L37.75-1.4Q37.75-1.05 37.65-0.45L37.65-0.45Q37.4 0.05 36.95 0.05L36.95 0.05 36.4 0.05Q35.75 0.05 35.4 0L35.4 0 34.3 0 33.25 0 32.4 0Q32.05 0 32-0.05L32-0.05 29.25-0.05 29.2-0.15Q29.1-0.25 28.9-0.25L28.9-0.25 28.75-0.15Q28.75-0.05 28.65-0.05L28.65-0.05 28.5-0.05 28.15-0.05Q27.9-0.15 27.25-0.15L27.25-0.15Q26.05-0.25 25.25-0.25L25.25-0.25Q24.7-1.4 23.95-5.3L23.95-5.3Q22.9-5.15 21.55-5.15L21.55-5.15 20.25-5.15 19-5.15Q18.8-4.4 18.75-3.9L18.75-3.9Q18.7-3.65 18.35-2.2 18-0.75 17.7-0.25L17.7-0.25 17.4-0.15Q17.25-0.1 17.15-0.08 17.05-0.05 17.05-0.05L17.05-0.05 16.95-0.05Q16.65-0.05 16.55-0.15L16.55-0.15Q16.35-0.25 16.3-0.25L16.3-0.25 14.4-0.15 13-0.15Q12.75-0.1 12.6-0.08 12.45-0.05 12.4-0.05L12.4-0.05 8.4-0.05 8-0.05Q7.55 0 6.15 0L6.15 0 4.95 0Q4.65 0.05 4 0.05L4 0.05 3.4 0.05ZM23.5-10.65Q23.2-12.35 23.15-12.65L23.15-12.65 22.75-15.05Q22.65-15.75 22.55-16.32 22.45-16.9 22.4-17.4L22.4-17.4Q22.25-18 22.18-18.53 22.1-19.05 22-19.5L22-19.5Q21.95-19.8 21.9-20.28 21.85-20.75 21.75-20.95L21.75-20.95 21.65-21.55Q21.65-21.75 21.55-21.9L21.55-21.9 21.5-22.2Q21.4-21.9 21.4-21.9L21.4-21.9 21.4-21.7 21.4-21.55Q21.4-21.5 21.35-21.38 21.3-21.25 21.25-20.95L21.25-20.95Q21.2-20.7 21.15-20.33 21.1-19.95 21-19.5L21-19.5 20.65-17.45 20.25-15.15 20.1-14.05Q20-13.65 19.9-12.75L19.9-12.75Q19.45-10.5 19.5-10.7L19.5-10.7 21.7-10.7Q21.75-10.75 21.85-10.83 21.95-10.9 22-10.9L22-10.9 22.15-10.9Q22.4-10.9 22.58-10.85 22.75-10.8 22.9-10.75L22.9-10.75Q23.2-10.65 23.5-10.65L23.5-10.65ZM66.4 0.55Q64.2-1.6 62.65-3.8L62.65-3.8Q61.55-5.25 59.25-8.95L59.25-8.95 58.4-10.3Q58.35-10.35 58.32-10.38 58.3-10.4 58.3-10.4L58.3-10.4 58.05-10.4 57.85-10.3Q57.8-9.65 57.8-6.8L57.8-6.8Q57.8-4.95 57.6-2.45L57.6-2.45 57.55-0.95Q57.35-0.4 57.3-0.4L57.3-0.4 56.95-0.4 56.8-0.4Q51.3 0 48.8 0L48.8 0 48.05 0 47.1 0Q46.55 0 46.3-0.05L46.3-0.05 45.95-0.05 44.4-0.55 44.3-0.9Q44.2-0.9 44.17-1.1 44.15-1.3 44.15-1.4L44.15-1.4Q44-3.5 43.9-4.45L43.9-4.45Q43.7-7.15 43.65-8.4L43.65-8.4Q43.55-9.6 43.55-9.95L43.55-9.95 43.3-12.7 43.25-14.2Q43.2-14.65 43.2-15.45L43.2-15.45 43.2-15.9Q43.3-16.15 43.3-16.7L43.3-16.7 43.3-17.55Q43.35-17.75 43.35-18L43.35-18 43.3-18.4 43.3-18.9Q43.3-19.25 43.2-19.45L43.2-19.45 43.2-19.75 43.25-21Q43.3-21.35 43.3-22.05L43.3-22.05Q43.4-23.55 43.4-24.9L43.4-24.9 43.4-25.4Q43.35-25.55 43.35-26.05L43.35-26.05 43.35-26.75 43.35-27.25Q43.2-27.4 43.2-27.55L43.2-27.55Q43.2-28.25 44.45-28.55L44.45-28.55Q45.1-28.75 46.3-28.75L46.3-28.75Q58-28.75 63.8-27.95L63.8-27.95Q69.5-27.15 71.8-25.2L71.8-25.2Q72.8-24.25 73.22-22.98 73.65-21.7 73.65-19.95L73.65-19.95Q73.65-17.15 72.05-15.25L72.05-15.25Q71-14.2 69.6-13.5L69.6-13.5Q69.9-12.75 71.35-10.5L71.35-10.5Q71.65-10.15 71.92-9.75 72.2-9.35 72.6-8.9L72.6-8.9Q73.55-7.6 74.8-6.05L74.8-6.05Q74.85-5.85 75.2-5.2L75.2-5.2Q75.45-5.1 75.47-4.98 75.5-4.85 75.4-4.65L75.4-4.65Q75-4.05 73.05-2.9L73.05-2.9Q72.8-2.65 72.45-2.4L72.45-2.4Q71.45-1.6 69.7-0.75L69.7-0.75Q68.1 0.1 66.95 0.45L66.95 0.45Q66.5 0.7 66.4 0.55L66.4 0.55ZM57.3-17.05Q57.95-17.05 59.05-17.3L59.05-17.3Q60.1-17.6 60.55-17.9L60.55-17.9Q61.3-18.35 61.85-18.9L61.85-18.9Q62.4-19.55 62.4-20.4L62.4-20.4Q62.4-21.8 61.55-22.65L61.55-22.65Q60.8-23.25 59.7-23.25L59.7-23.25 57.55-23.25Q57.55-22.6 57.45-21.2L57.45-21.2 57.4-20.15Q57.3-19.15 57.3-17.05L57.3-17.05ZM82.2 0.15Q81.45 0.15 81.2-0.75L81.2-0.75Q81.05-1.25 81.05-2.55L81.05-2.55Q81.05-6.4 80.95-9.25L80.95-9.25Q80.8-13.6 80.8-18.3L80.8-18.3 80.8-27.9Q80.8-28.3 81.17-28.65 81.55-29 81.95-29L81.95-29Q85.55-29 86.95-28.95L86.95-28.95 90.6-28.9Q92.1-28.9 95.6-29L95.6-29Q97.4-29.05 101.55-29.05L101.55-29.05Q104.6-29.05 106.8-28.3L106.8-28.3Q109.6-27.4 111.55-25.4L111.55-25.4Q113.55-23 113.55-19.05L113.55-19.05Q113.55-12.55 110.2-9.45L110.2-9.45Q107.15-6.7 101.35-6.7L101.35-6.7 95.4-6.7Q95.4-5.2 95.3-4.9L95.3-4.9Q95.3-4.55 95.25-4.4 95.2-4.25 95.2-4.2L95.2-4.2Q95.2-4.05 95.3-3.9L95.3-3.9 95.3-3.2 95.4-2.55 95.4-2.2Q95.4-0.85 94.8-0.3L94.8-0.3Q94.55-0.1 94.07-0.05 93.6 0 93.05 0L93.05 0 90.35 0 88.95 0.05Q86.85 0.15 85.55 0.15L85.55 0.15 82.2 0.15ZM96.6-11.95L97.8-11.95Q98.6-11.95 99.1-13.65L99.1-13.65Q99.45-14.8 99.65-17.2L99.65-17.2Q99.7-18.4 99.7-20L99.7-20 99.7-20.45Q99.7-21.55 99.45-22.55L99.45-22.55Q99.2-24.05 98.6-24.55L98.6-24.55Q98.25-24.9 97.8-24.9L97.8-24.9Q97.4-24.9 97.1-24.4L97.1-24.4Q96.55-23.35 96.3-20.9L96.3-20.9Q96.05-19.5 96.05-18.5L96.05-18.5Q95.8-16.2 95.8-12.05L95.8-12.05Q95.8-12.05 95.87-12.03 95.95-12 96.05-12L96.05-12Q96.1-11.95 96.6-11.95L96.6-11.95ZM134.59 2.65Q133.79 2.65 133.59 1.15L133.59 1.15Q133.59 0.8 133.54 0.5 133.49 0.2 133.49-0.15L133.49-0.15Q133.49-0.8 133.44-0.95L133.44-0.95 133.34-2.8 133.14-2.8 129.59-2.8Q124.99-2.8 122.59-2.75L122.59-2.75Q121.44-2.75 118.84-2.65L118.84-2.65Q117.59-2.7 116.99-3.15L116.99-3.15Q116.59-3.3 116.59-3.65L116.59-3.65 116.59-6.3Q116.59-8.45 116.84-9.55L116.84-9.55Q116.89-10.4 117.64-13L117.64-13 118.44-15.9 118.74-16.65Q118.89-17.1 119.69-19L119.69-19 120.69-21.4 123.49-27.65Q124.54-29.75 124.84-30.25L124.84-30.25Q124.89-30.3 125.24-30.55L125.24-30.55Q125.39-30.65 125.49-30.75 125.59-30.85 125.69-30.9L125.69-30.9 128.84-30.9Q129.94-30.9 131.74-30.75L131.74-30.75Q132.14-31 133.44-31L133.44-31Q134.84-31 135.44-30.95L135.44-30.95Q136.09-30.9 137.49-30.9L137.49-30.9 137.59-30.9 137.69-30.95 139.59-30.95Q139.69-30.9 139.89-30.9L139.89-30.9 140.24-30.9Q140.64-31 140.94-30.9L140.94-30.9 141.19-30.9 141.84-30.9 142.59-30.9 143.34-30.9Q143.59-30.8 143.89-30.8L143.89-30.8Q144.34-30.8 144.44-30.15L144.44-30.15Q144.49-29.9 144.49-29.3L144.49-29.3 144.44-27.6Q144.34-26.2 144.34-25.35L144.34-25.35Q144.34-24.3 144.49-23.15L144.49-23.15 144.49-22.45Q144.34-20.05 144.34-17.4L144.34-17.4Q144.24-16.05 144.24-12.75L144.24-12.75 144.24-11.9 147.84-11.9Q148.84-11.9 149.34-9.9L149.34-9.9Q149.59-8.8 149.59-6.8L149.59-6.8Q149.59-6.45 149.49-6.15L149.49-6.15Q149.49-5.4 149.44-5L149.44-5Q149.44-4.25 149.39-4L149.39-4Q149.39-3.55 149.34-3.45 149.29-3.35 148.99-3.25L148.99-3.25Q148.64-3.15 147.74-3.15L147.74-3.15Q147.49-3.05 147.14-3.05L147.14-3.05 145.64-3.05Q144.64-3.05 144.14-3L144.14-3 144.09-2.2Q143.99-1.55 143.99-0.45L143.99-0.45Q143.99 1.3 143.64 1.9L143.64 1.9Q143.39 2.15 142.84 2.15L142.84 2.15Q142.79 2.15 142.74 2.1 142.69 2.05 142.69 2.05L142.69 2.05Q142.59 2.05 142.49 2.15L142.49 2.15 142.34 2.15Q142.14 2.15 142.09 2.2L142.09 2.2 141.09 2.15 140.84 2.15Q140.69 2.05 140.49 2.05L140.49 2.05Q140.34 2.05 140.19 2.2L140.19 2.2 136.94 2.2 136.59 2.25Q136.19 2.35 135.82 2.45 135.44 2.55 135.09 2.65L135.09 2.65 134.59 2.65ZM130.39-11.9L132.84-11.9 132.84-25.05 132.09-22.9Q131.79-22.1 131.57-21.5 131.34-20.9 131.19-20.45L131.19-20.45Q130.84-19.65 130.34-17.95L130.34-17.95Q129.59-16.15 128.64-13.55L128.64-13.55Q128.19-12.35 128.09-11.95L128.09-11.95Q129.59-11.95 130.39-11.9L130.39-11.9ZM164.29 0.75Q162.29 0.85 160.89 0.65L160.89 0.65Q159.74 0.4 158.79-0.05 157.84-0.5 157.04-1.45L157.04-1.45Q155.44-3.45 154.89-6.7L154.89-6.7Q154.49-9.35 154.59-12.5L154.59-12.5 154.59-14.7Q154.59-15.15 154.64-15.4L154.64-15.4 154.64-16.4 154.64-17.3 154.64-17.8 154.79-18.15Q154.79-18.2 154.82-18.3 154.84-18.4 154.84-18.65L154.84-18.65Q154.99-20.45 154.99-21.55L154.99-21.55 155.09-23.4Q155.14-24.65 155.14-26.3L155.14-26.3Q155.14-26.95 155.09-27.2L155.09-27.2Q154.99-27.8 154.99-28.15L154.99-28.15Q154.99-28.9 156.54-28.9L156.54-28.9 157.24-28.9Q157.84-28.9 158.04-29L158.04-29 164.14-28.9Q164.14-28.9 164.22-28.83 164.29-28.75 164.34-28.75L164.34-28.75 164.74-28.9Q167.34-28.9 168.09-28.4L168.09-28.4Q168.59-28.05 168.82-27.35 169.04-26.65 169.04-25.45L169.04-25.45Q169.04-24.65 169.14-23.25L169.14-23.25Q169.24-22.55 169.24-21.05L169.24-21.05 169.24-20.55Q169.14-19.1 169.04-15.8L169.04-15.8 168.99-13.4 168.99-11.25Q168.89-10.65 168.89-9.65L168.89-9.65 168.89-8.9 168.89-8.15Q168.84-7.45 169.09-6.2L169.09-6.2Q169.34-5.8 169.54-5.8L169.54-5.8Q169.84-5.8 171.79-6.55L171.79-6.55 172.99-7.15Q173.49-7.35 173.49-7.55L173.49-7.55 173.49-24Q173.34-25.05 173.34-25.65L173.34-25.65Q173.29-25.9 173.29-26.4L173.29-26.4 173.29-27.15 173.29-27.65Q173.29-28.25 173.54-28.5L173.54-28.5Q173.64-28.65 174.04-28.65L174.04-28.65Q174.14-28.65 174.24-28.58 174.34-28.5 174.34-28.4L174.34-28.4 174.34-28.3Q174.84-28.5 176.49-28.65L176.49-28.65Q177.84-28.8 179.49-28.8L179.49-28.8 180.74-28.8 181.54-28.8 182.49-28.8 187.74-28.65Q187.84-28.65 187.92-28.6 187.99-28.55 187.99-28.5L187.99-28.5Q188.04-28.5 188.04-28.45 188.04-28.4 188.04-28.4L188.04-28.4 188.04-28.15Q187.99-28.15 187.99-28L187.99-28 188.24-28.05Q188.29-28.15 188.39-28.15L188.39-28.15Q188.54-28.15 188.54-27.9L188.54-27.9Q188.54-19.15 188.47-13.38 188.39-7.6 188.04-1.7L188.04-1.7Q188.04-1.45 187.64-0.95L187.64-0.95Q187.44-0.7 187.29-0.55L187.29-0.55Q187.24-0.45 187.14-0.4 187.04-0.35 186.99-0.3L186.99-0.3Q186.94-0.35 186.64-0.43 186.34-0.5 186.14-0.5L186.14-0.5 185.99-0.4Q185.89-0.3 185.79-0.3L185.79-0.3Q183.79 0.05 179.49 0.05L179.49 0.05 177.29 0.05Q176.04 0.05 175.09-0.15L175.09-0.15Q174.74-0.4 174.34-1.4L174.34-1.4Q174.29-1.75 174.14-2L174.14-2Q174.04-2.25 173.89-2.25L173.89-2.25Q173.49-2.25 172.64-1.7L172.64-1.7Q172.54-1.6 172.37-1.48 172.19-1.35 172.04-1.2L172.04-1.2Q171.64-0.9 171.49-0.7L171.49-0.7Q170.14 0.05 168.29 0.4L168.29 0.4Q167.04 0.7 165.99 0.7L165.99 0.7Q164.84 0.7 164.29 0.75L164.29 0.75Z" opacity="1" transform="matrix(1,0,0,1,0,0)" fill="#000000" class="undefined-text-0" data-fill-palette-color="primary" id="text-0"></path></svg></g></svg></g><g transform="matrix(1,0,0,1,0,35.792298195253125)"><svg viewBox="0 0 160 17.895048754822866" height="17.895048754822866" width="160"><g transform="matrix(1,0,0,1,0,0)"><svg width="160" viewBox="0.5400000214576721 -40.5 467.3500061035156 52.27000045776367" height="17.895048754822866" data-palette-color="#dcdcdc"><path d="M14.18 0L0.54-28.83 8.91-28.83 16.41-11.5 18.6-6.64 21.29-12.94 14.16-28.83 21.19-28.83 24.68-20.29 28.17-28.83 35.21-28.83 28.05-12.94 30.76-6.64 32.96-11.5 40.45-28.83 48.83-28.83 35.18 0 27.32 0 24.68-5.57 22.05 0 14.18 0ZM73.1-14.5L73.1-14.5Q73.1-17.43 74.3-20.1 75.5-22.78 77.74-24.83 79.99-26.88 83.25-28.1 86.51-29.32 90.66-29.32L90.66-29.32Q94.78-29.32 98.09-28.09 101.4-26.86 103.71-24.71 106.01-22.56 107.25-19.65 108.48-16.75 108.48-13.43L108.48-13.43Q108.48-13.01 108.47-12.54 108.46-12.06 108.41-11.67L108.41-11.67 81.16-11.67Q81.62-10.38 82.66-9.3 83.7-8.23 85.26-7.45 86.82-6.67 88.88-6.24 90.93-5.81 93.42-5.81L93.42-5.81Q95.91-5.81 98.37-6.34 100.84-6.86 103.08-7.67L103.08-7.67 105.53-2.15Q104.11-1.49 102.66-0.99 101.2-0.49 99.63-0.16 98.06 0.17 96.33 0.34 94.61 0.51 92.71 0.51L92.71 0.51Q87.85 0.51 84.19-0.66 80.53-1.83 78.06-3.86 75.59-5.88 74.35-8.62 73.1-11.35 73.1-14.5ZM81.16-17.31L100.81-17.31Q100.42-18.51 99.61-19.54 98.79-20.58 97.57-21.35 96.35-22.12 94.73-22.56 93.12-23 91.19-23L91.19-23Q89.14-23 87.46-22.53 85.77-22.07 84.51-21.29 83.24-20.51 82.39-19.48 81.55-18.46 81.16-17.31L81.16-17.31ZM174.02 0L174.02-40.48 181.25-40.48 181.25-26.61Q183.52-27.86 186.32-28.59 189.11-29.32 192.19-29.32L192.19-29.32Q195.75-29.32 198.6-28.27 201.44-27.22 203.42-25.26 205.4-23.29 206.46-20.48 207.52-17.68 207.52-14.16L207.52-14.16 207.52 0 200.32 0 200.32-13.87Q200.32-15.92 199.66-17.61 199-19.31 197.73-20.53 196.46-21.75 194.64-22.42 192.82-23.1 190.53-23.1L190.53-23.1Q187.77-23.1 185.4-22.22 183.03-21.34 181.25-20L181.25-20 181.25 0 174.02 0ZM234.82-14.5L234.82-14.5Q234.82-17.43 236.02-20.1 237.22-22.78 239.46-24.83 241.71-26.88 244.97-28.1 248.23-29.32 252.38-29.32L252.38-29.32Q256.5-29.32 259.81-28.09 263.12-26.86 265.43-24.71 267.73-22.56 268.97-19.65 270.2-16.75 270.2-13.43L270.2-13.43Q270.2-13.01 270.19-12.54 270.17-12.06 270.13-11.67L270.13-11.67 242.88-11.67Q243.34-10.38 244.38-9.3 245.42-8.23 246.98-7.45 248.54-6.67 250.59-6.24 252.65-5.81 255.14-5.81L255.14-5.81Q257.63-5.81 260.09-6.34 262.56-6.86 264.8-7.67L264.8-7.67 267.25-2.15Q265.83-1.49 264.38-0.99 262.92-0.49 261.35-0.16 259.77 0.17 258.05 0.34 256.33 0.51 254.43 0.51L254.43 0.51Q249.57 0.51 245.91-0.66 242.25-1.83 239.78-3.86 237.31-5.88 236.07-8.62 234.82-11.35 234.82-14.5ZM242.88-17.31L262.53-17.31Q262.14-18.51 261.32-19.54 260.51-20.58 259.29-21.35 258.07-22.12 256.45-22.56 254.84-23 252.91-23L252.91-23Q250.86-23 249.18-22.53 247.49-22.07 246.22-21.29 244.96-20.51 244.11-19.48 243.27-18.46 242.88-17.31L242.88-17.31ZM298.75 0L298.75-40.5 305.97-40.5 305.97 0 298.75 0ZM342.85-2.08L342.85 11.77 335.62 11.77 335.62-28.81 342.85-28.81 342.85-26.1Q343.8-26.76 345.09-27.34 346.39-27.93 347.88-28.37 349.37-28.81 350.95-29.06 352.54-29.32 354.13-29.32L354.13-29.32Q357.79-29.32 360.85-28.25 363.92-27.17 366.11-25.22 368.31-23.27 369.54-20.54 370.78-17.82 370.78-14.53L370.78-14.53Q370.78-11.08 369.48-8.31 368.19-5.54 365.91-3.58 363.62-1.61 360.49-0.55 357.35 0.51 353.69 0.51L353.69 0.51Q352.13 0.51 350.6 0.32 349.07 0.12 347.67-0.22 346.27-0.56 345.03-1.04 343.8-1.51 342.85-2.08L342.85-2.08ZM342.85-19.04L342.85-9.06Q343.95-8.18 345.17-7.57 346.39-6.96 347.66-6.57 348.93-6.18 350.22-5.99 351.51-5.81 352.74-5.81L352.74-5.81Q355.23-5.81 357.17-6.48 359.11-7.15 360.44-8.33 361.77-9.5 362.48-11.08 363.18-12.67 363.18-14.53L363.18-14.53Q363.18-16.26 362.49-17.8 361.79-19.34 360.49-20.5 359.18-21.66 357.34-22.33 355.49-23 353.2-23L353.2-23Q351.73-23 350.27-22.72 348.8-22.44 347.45-21.92 346.09-21.41 344.91-20.68 343.73-19.95 342.85-19.04L342.85-19.04ZM435.37-13.75L435.37-28.83 442.57-28.83 442.57-14.77Q442.57-12.77 443.01-11.12 443.45-9.47 444.51-8.3 445.57-7.13 447.34-6.48 449.11-5.83 451.75-5.83L451.75-5.83Q453-5.83 454.28-6.1 455.56-6.37 456.73-6.85 457.9-7.32 458.92-7.98 459.93-8.64 460.66-9.42L460.66-9.42 460.66-28.83 467.89-28.83 467.89 0 460.66 0 460.66-2.47Q458-0.88 455.32-0.2 452.63 0.49 450.21 0.49L450.21 0.49Q446.26 0.49 443.44-0.46 440.62-1.42 438.82-3.23 437.03-5.05 436.2-7.7 435.37-10.35 435.37-13.75L435.37-13.75Z" opacity="1" transform="matrix(1,0,0,1,0,0)" fill="#000000" class="undefined-text-1" data-fill-palette-color="secondary" id="text-1"></path></svg></g></svg></g></svg></g></svg></g><g></g></svg></g></svg></g></svg></g></svg></g><defs><mask id="7ac5d323-4231-41ed-a7e9-d900e237059d"><rect width="640" height="400" fill="white"></rect><rect width="348.05760000000004" height="133.2094831194691" fill="black" y="56.995258440265445" x="23.731199999999973" id="transform-me"></rect></mask><mask id="d7553647-078c-4c51-9e8d-2df5b7f9fa07"><rect width="640" height="400" fill="white"></rect><rect width="348.05760000000004" height="133.2094831194691" fill="black" y="56.995258440265445" x="23.731199999999973" id="transform-me"></rect></mask><mask id="fd2d088c-eb3e-43f3-99be-48490d9137c7"><rect width="640" height="400" fill="white"></rect><rect width="348.05760000000004" height="133.2094831194691" fill="black" y="56.995258440265445" x="23.731199999999973" id="transform-me"></rect></mask><mask id="14a12163-cf95-47b6-8a1e-14918b1d4c8b"><rect width="640" height="400" fill="white"></rect><rect width="348.05760000000004" height="133.2094831194691" fill="black" y="56.995258440265445" x="23.731199999999973" id="transform-me"></rect></mask><mask id="1874e7a7-dd31-4ba3-aa07-f1d3c9182198"><rect width="640" height="400" fill="white"></rect><rect width="348.05760000000004" height="133.2094831194691" fill="black" y="56.995258440265445" x="23.731199999999973" id="transform-me"></rect></mask><mask id="6c451bc4-9cec-4efd-bfcf-54b4717a81c8"><rect width="640" height="400" fill="white"></rect><rect width="348.05760000000004" height="133.2094831194691" fill="black" y="56.995258440265445" x="23.731199999999973" id="transform-me"></rect></mask><mask id="76432680-6c13-4a7e-b9fa-dc3402fd90e2"><rect width="640" height="400" fill="white"></rect><rect width="348.05760000000004" height="133.2094831194691" fill="black" y="56.995258440265445" x="23.731199999999973" id="transform-me"></rect></mask><mask id="e8d1ea33-82fc-4e9a-aa58-47ea6a2de5e8"><rect width="640" height="400" fill="white"></rect><rect width="348.05760000000004" height="133.2094831194691" fill="black" y="56.995258440265445" x="23.731199999999973" id="transform-me"></rect></mask><mask id="e6bd3ca9-78c2-42a7-8951-aad5cc94e13f"><rect width="640" height="400" fill="white"></rect><rect width="348.05760000000004" height="133.2094831194691" fill="black" y="56.995258440265445" x="23.731199999999973" id="transform-me"></rect></mask><mask id="95620002-9487-47fd-9b6c-3b03350e570a"><rect width="640" height="400" fill="white"></rect><rect width="348.05760000000004" height="133.2094831194691" fill="black" y="56.995258440265445" x="23.731199999999973" id="transform-me"></rect></mask><mask id="baf8dcfe-d249-45cf-acef-eadea4b6f959"><rect width="640" height="400" fill="white"></rect><rect width="348.05760000000004" height="133.2094831194691" fill="black" y="56.995258440265445" x="23.731199999999973" id="transform-me"></rect></mask><mask id="c5423e8b-73b0-4800-a2d9-154feba9df9c"><rect width="640" height="400" fill="white"></rect><rect width="348.05760000000004" height="133.2094831194691" fill="black" y="56.995258440265445" x="23.731199999999973" id="transform-me"></rect></mask><mask id="270efaa2-ae4c-4a42-a350-d8515a8a9b00"><rect width="640" height="400" fill="white"></rect><rect width="348.05760000000004" height="133.2094831194691" fill="black" y="56.995258440265445" x="23.731199999999973" id="transform-me"></rect></mask><mask id="14050022-0661-4310-8f06-4b233d9e73be"><rect width="640" height="400" fill="white"></rect><rect width="348.05760000000004" height="133.2094831194691" fill="black" y="56.995258440265445" x="23.731199999999973" id="transform-me"></rect></mask></defs></svg><rect width="320" height="360" fill="none" stroke="none" visibility="hidden"></rect></g></svg></g></svg>